<?xml version="1.0" encoding="UTF-8"?>
<svg id="Layer_1" xmlns="http://www.w3.org/2000/svg" version="1.1" xmlns:xlink="http://www.w3.org/1999/xlink" viewBox="0 0 500 121.3">
  <!-- Generator: Adobe Illustrator 29.3.1, SVG Export Plug-In . SVG Version: 2.1.0 Build 151)  -->
  <defs>
    <style>
      .st0 {
        clip-path: url(#clippath-4);
      }

      .st1 {
        fill: #ffb608;
      }

      .st1, .st2 {
        fill-rule: evenodd;
      }

      .st3 {
        fill: none;
      }

      .st4 {
        fill: #a2adb4;
      }

      .st5 {
        clip-path: url(#clippath-1);
      }

      .st6 {
        clip-path: url(#clippath-3);
      }

      .st7 {
        fill: #0a57a5;
      }

      .st2 {
        fill: #e4a91d;
      }

      .st8 {
        clip-path: url(#clippath-2);
      }

      .st9 {
        fill: #ff9a12;
      }

      .st10 {
        clip-path: url(#clippath);
      }
    </style>
    <clipPath id="clippath">
      <rect class="st3" x="192.3" y="7.2" width="74.5" height="28"/>
    </clipPath>
    <clipPath id="clippath-1">
      <rect class="st3" x="197.7" y="39.7" width="9" height="14.6"/>
    </clipPath>
    <clipPath id="clippath-2">
      <rect class="st3" x="197.7" y="44.1" width="3" height="10.1"/>
    </clipPath>
    <clipPath id="clippath-3">
      <rect class="st3" x="200.7" y="47.1" width="3" height="7.1"/>
    </clipPath>
    <clipPath id="clippath-4">
      <rect class="st3" x="202.2" y="44.1" width="3" height="10.1"/>
    </clipPath>
  </defs>
  <path class="st7" d="M56.3,40.4c7.7,0,14.4,1.5,20.2,4.5,5.8,3,10.3,7.3,13.5,12.8,3.2,5.5,4.8,12,4.8,19.3s-1.6,13.7-4.8,19.2c-3.2,5.5-7.7,9.7-13.5,12.7-5.8,3-12.5,4.5-20.2,4.5h-25.5V40.4h25.5ZM55.7,100.9c7.7,0,13.6-2.1,17.8-6.3,4.2-4.2,6.3-10.1,6.3-17.7s-2.1-13.5-6.3-17.8c-4.2-4.3-10.1-6.4-17.8-6.4h-10.3v48.2h10.3Z"/>
  <path class="st7" d="M115.9,40.4v73h-14.6V40.4h14.6Z"/>
  <path class="st7" d="M140.4,40.4v45.2c0,4.9,1.3,8.7,3.8,11.3,2.6,2.6,6.2,3.9,10.9,3.9s8.4-1.3,11-3.9c2.6-2.6,3.9-6.4,3.9-11.3v-45.2h14.7v45.1c0,6.2-1.3,11.4-4,15.7-2.7,4.3-6.3,7.5-10.8,9.7-4.5,2.1-9.5,3.2-15,3.2s-10.4-1.1-14.8-3.2c-4.4-2.2-7.9-5.4-10.5-9.7-2.6-4.3-3.9-9.5-3.9-15.7v-45.1h14.6Z"/>
  <path class="st4" d="M190.9,76.8c0-7.2,1.6-13.6,4.9-19.3,3.2-5.7,7.7-10.1,13.3-13.3,5.6-3.2,11.9-4.8,18.9-4.8s15.3,2.1,21.4,6.3c6.1,4.2,10.4,10,12.9,17.4h-16.8c-1.7-3.5-4-6.1-7-7.8-3-1.7-6.5-2.6-10.5-2.6s-8,1-11.4,3c-3.3,2-5.9,4.8-7.7,8.4-1.9,3.6-2.8,7.9-2.8,12.8s.9,9,2.8,12.7c1.8,3.7,4.4,6.5,7.7,8.5,3.3,2,7.1,3,11.4,3s7.5-.9,10.5-2.7c3-1.8,5.4-4.4,7-7.9h16.8c-2.4,7.5-6.7,13.3-12.8,17.4-6.1,4.1-13.3,6.2-21.5,6.2s-13.3-1.6-18.9-4.8c-5.6-3.2-10-7.6-13.3-13.2-3.2-5.6-4.9-12-4.9-19.2Z"/>
  <path class="st4" d="M321.1,62.4c-1.7-3.1-4-5.4-6.9-7-2.9-1.6-6.3-2.4-10.2-2.4s-8.2,1-11.5,2.9c-3.3,1.9-6,4.7-7.8,8.4-1.9,3.6-2.8,7.8-2.8,12.5s1,9.1,2.9,12.7c1.9,3.6,4.6,6.4,8,8.4,3.4,1.9,7.4,2.9,11.9,2.9s10.1-1.5,13.7-4.4c3.6-3,5.9-7.1,7-12.4h-25.1v-11.2h39.5v12.8c-1,5.1-3.1,9.8-6.3,14.1-3.2,4.3-7.3,7.8-12.4,10.4-5.1,2.6-10.7,3.9-17,3.9s-13.4-1.6-19.1-4.8c-5.7-3.2-10.1-7.6-13.4-13.2-3.2-5.6-4.9-12-4.9-19.2s1.6-13.6,4.9-19.3c3.2-5.7,7.7-10.1,13.4-13.3,5.7-3.2,12-4.8,19-4.8s15.4,2,21.4,6c6.1,4,10.2,9.6,12.5,16.9h-16.8Z"/>
  <path class="st4" d="M399.4,63c0,3.9-.9,7.6-2.8,11-1.8,3.4-4.7,6.2-8.7,8.3-3.9,2.1-8.9,3.1-14.9,3.1h-12.2v28h-14.6V40.4h26.9c5.6,0,10.4,1,14.4,2.9,4,1.9,7,4.6,8.9,8,2,3.4,3,7.3,3,11.6ZM372.4,73.6c4,0,7-.9,9-2.8,2-1.8,2.9-4.4,2.9-7.8,0-7.1-4-10.7-11.9-10.7h-11.6v21.2h11.6Z"/>
  <path class="st4" d="M450.1,99.5h-29.1l-4.8,13.9h-15.3l26.2-73.1h17.1l26.2,73.1h-15.5l-4.8-13.9ZM446.1,87.8l-10.6-30.5-10.5,30.5h21.1Z"/>
  <path class="st4" d="M221.8,37.1c5.3-.5,11.7-.1,17,1.1,3.1.7,8,2.3,9.5,5,0-.2,0-.3,0-.4,0-2,.2-4.2.3-6.5,0,0,0,0,0,0,0-1.8.2-3.6.2-5.4-.3-1.9-3.8-3.8-9.1-5.1-5.3-1.2-11.6-1.7-16.9-1.2-5.8.6-9.9,2.2-11.4,4.6,0,.2-.1.8-.1,1.3,0,1.3,0,2.9,0,4.5,0,0,0,0,0,0,0,2.6,0,4.6-.2,6,1.7-1.6,4.9-3.1,10.8-3.7"/>
  <g class="st10">
    <path class="st4" d="M267.3,24.5l-37.6-17.2c-.1,0-.3,0-.5,0l-36.6,16.7c-.2,0-.3.3-.4.6,0,.2.1.5.3.6l17.3,8.4c0-1.1,0-2.2,0-3.5,0-.8.2-1.7.2-1.7h0c0-.1,0-.2,0-.2,1.2-2,4.3-4.5,12.4-5.3,5.4-.5,11.9,0,17.2,1.2,3.6.8,9.7,2.8,10.1,6.3h0c0,1.5-.1,2.9-.2,4.2l17.6-9c.2-.1.3-.3.3-.6s-.1-.5-.4-.6"/>
  </g>
  <path class="st9" d="M202.2,39.6h-1.2s.2-13.1.2-13.1h1.2s-.2,13.1-.2,13.1"/>
  <g class="st5">
    <path class="st1" d="M200.8,41.2c-2.1,2.8-2.8,6.7-2.4,11.3,3,2.5,5.2,2.4,6.9.3,0-9-1.3-13.4-4.5-11.7"/>
  </g>
  <g class="st8">
    <path class="st2" d="M200.3,53.8l-.2-9.1-.9,8.4c.4.3.8.5,1.1.7"/>
  </g>
  <g class="st6">
    <path class="st2" d="M201.8,48.8v3.9s-.5-5.1-.5-5.1l.3,6.5c.4.1.7.2,1,.2h0s-.9-5.5-.9-5.5"/>
  </g>
  <g class="st0">
    <path class="st2" d="M203.3,45.4v8.8c.3,0,.5-.2.7-.3l.2-4.2-.6-.3-.4-3.9"/>
  </g>
  <path class="st2" d="M202.1,37.7c1.2,0,2.1,1,2.1,2.2,0,1.1-1.1,2-2.3,2-1.2,0-2.1-1-2.1-2.2,0-1.1,1.1-2,2.3-2"/>
</svg>