<svg xmlns="http://www.w3.org/2000/svg" xmlns:xlink="http://www.w3.org/1999/xlink" width="500" zoomAndPan="magnify" viewBox="0 0 375 159.000002" height="212" preserveAspectRatio="xMidYMid meet" version="1.0"><defs><g/><clipPath id="ab4b84cd14"><path d="M 151.40625 31.265625 L 201.292969 31.265625 L 201.292969 50 L 151.40625 50 Z M 151.40625 31.265625 " clip-rule="nonzero"/></clipPath><clipPath id="aa761b3a9c"><path d="M 155 53 L 161 53 L 161 62.773438 L 155 62.773438 Z M 155 53 " clip-rule="nonzero"/></clipPath><clipPath id="244228c9b9"><path d="M 155 56 L 157 56 L 157 62.773438 L 155 62.773438 Z M 155 56 " clip-rule="nonzero"/></clipPath><clipPath id="c1e11c7ccc"><path d="M 157 58 L 159 58 L 159 62.773438 L 157 62.773438 Z M 157 58 " clip-rule="nonzero"/></clipPath><clipPath id="e170abdbeb"><path d="M 158 56 L 160 56 L 160 62.773438 L 158 62.773438 Z M 158 56 " clip-rule="nonzero"/></clipPath></defs><g fill="#0a57a5" fill-opacity="1"><g transform="translate(38.349886, 102.379625)"><g><path d="M 21.921875 -48.875 C 27.046875 -48.875 31.554688 -47.867188 35.453125 -45.859375 C 39.359375 -43.847656 42.375 -40.988281 44.5 -37.28125 C 46.625 -33.570312 47.6875 -29.265625 47.6875 -24.359375 C 47.6875 -19.460938 46.625 -15.179688 44.5 -11.515625 C 42.375 -7.847656 39.359375 -5.007812 35.453125 -3 C 31.554688 -1 27.046875 0 21.921875 0 L 4.828125 0 L 4.828125 -48.875 Z M 21.5625 -8.328125 C 26.695312 -8.328125 30.664062 -9.726562 33.46875 -12.53125 C 36.269531 -15.332031 37.671875 -19.273438 37.671875 -24.359375 C 37.671875 -29.453125 36.269531 -33.429688 33.46875 -36.296875 C 30.664062 -39.171875 26.695312 -40.609375 21.5625 -40.609375 L 14.640625 -40.609375 L 14.640625 -8.328125 Z M 21.5625 -8.328125 "/></g></g></g><g fill="#0a57a5" fill-opacity="1"><g transform="translate(85.605126, 102.379625)"><g><path d="M 14.640625 -48.875 L 14.640625 0 L 4.828125 0 L 4.828125 -48.875 Z M 14.640625 -48.875 "/></g></g></g><g fill="#0a57a5" fill-opacity="1"><g transform="translate(102.12677, 102.379625)"><g><path d="M 14.5 -48.875 L 14.5 -18.625 C 14.5 -15.3125 15.359375 -12.78125 17.078125 -11.03125 C 18.804688 -9.28125 21.234375 -8.40625 24.359375 -8.40625 C 27.535156 -8.40625 29.988281 -9.28125 31.71875 -11.03125 C 33.445312 -12.78125 34.3125 -15.3125 34.3125 -18.625 L 34.3125 -48.875 L 44.1875 -48.875 L 44.1875 -18.6875 C 44.1875 -14.539062 43.285156 -11.03125 41.484375 -8.15625 C 39.679688 -5.28125 37.273438 -3.117188 34.265625 -1.671875 C 31.253906 -0.234375 27.90625 0.484375 24.21875 0.484375 C 20.582031 0.484375 17.28125 -0.234375 14.3125 -1.671875 C 11.351562 -3.117188 9.007812 -5.28125 7.28125 -8.15625 C 5.550781 -11.03125 4.6875 -14.539062 4.6875 -18.6875 L 4.6875 -48.875 Z M 14.5 -48.875 "/></g></g></g><g fill="#a2adb4" fill-opacity="1"><g transform="translate(147.987848, 102.379625)"><g><path d="M 2.453125 -24.5 C 2.453125 -29.3125 3.535156 -33.617188 5.703125 -37.421875 C 7.878906 -41.222656 10.84375 -44.1875 14.59375 -46.3125 C 18.351562 -48.4375 22.566406 -49.5 27.234375 -49.5 C 32.691406 -49.5 37.472656 -48.097656 41.578125 -45.296875 C 45.691406 -42.492188 48.566406 -38.617188 50.203125 -33.671875 L 38.921875 -33.671875 C 37.804688 -36.003906 36.234375 -37.753906 34.203125 -38.921875 C 32.171875 -40.085938 29.828125 -40.671875 27.171875 -40.671875 C 24.316406 -40.671875 21.78125 -40.003906 19.5625 -38.671875 C 17.351562 -37.347656 15.628906 -35.472656 14.390625 -33.046875 C 13.148438 -30.617188 12.53125 -27.769531 12.53125 -24.5 C 12.53125 -21.28125 13.148438 -18.445312 14.390625 -16 C 15.628906 -13.550781 17.351562 -11.660156 19.5625 -10.328125 C 21.78125 -8.992188 24.316406 -8.328125 27.171875 -8.328125 C 29.828125 -8.328125 32.171875 -8.921875 34.203125 -10.109375 C 36.234375 -11.304688 37.804688 -13.070312 38.921875 -15.40625 L 50.203125 -15.40625 C 48.566406 -10.40625 45.707031 -6.515625 41.625 -3.734375 C 37.539062 -0.960938 32.742188 0.421875 27.234375 0.421875 C 22.566406 0.421875 18.351562 -0.640625 14.59375 -2.765625 C 10.84375 -4.890625 7.878906 -7.84375 5.703125 -11.625 C 3.535156 -15.40625 2.453125 -19.695312 2.453125 -24.5 Z M 2.453125 -24.5 "/></g></g></g><g fill="#a2adb4" fill-opacity="1"><g transform="translate(198.813502, 102.379625)"><g><path d="M 38.859375 -34.171875 C 37.734375 -36.222656 36.191406 -37.785156 34.234375 -38.859375 C 32.273438 -39.929688 29.988281 -40.46875 27.375 -40.46875 C 24.476562 -40.46875 21.910156 -39.8125 19.671875 -38.5 C 17.429688 -37.195312 15.679688 -35.332031 14.421875 -32.90625 C 13.160156 -30.476562 12.53125 -27.675781 12.53125 -24.5 C 12.53125 -21.238281 13.171875 -18.394531 14.453125 -15.96875 C 15.742188 -13.539062 17.53125 -11.671875 19.8125 -10.359375 C 22.101562 -9.054688 24.765625 -8.40625 27.796875 -8.40625 C 31.523438 -8.40625 34.582031 -9.394531 36.96875 -11.375 C 39.351562 -13.363281 40.914062 -16.128906 41.65625 -19.671875 L 24.859375 -19.671875 L 24.859375 -27.171875 L 51.328125 -27.171875 L 51.328125 -18.625 C 50.671875 -15.21875 49.269531 -12.066406 47.125 -9.171875 C 44.976562 -6.273438 42.210938 -3.953125 38.828125 -2.203125 C 35.441406 -0.453125 31.648438 0.421875 27.453125 0.421875 C 22.734375 0.421875 18.472656 -0.640625 14.671875 -2.765625 C 10.867188 -4.890625 7.878906 -7.84375 5.703125 -11.625 C 3.535156 -15.40625 2.453125 -19.695312 2.453125 -24.5 C 2.453125 -29.3125 3.535156 -33.617188 5.703125 -37.421875 C 7.878906 -41.222656 10.867188 -44.1875 14.671875 -46.3125 C 18.472656 -48.4375 22.707031 -49.5 27.375 -49.5 C 32.882812 -49.5 37.671875 -48.15625 41.734375 -45.46875 C 45.796875 -42.789062 48.59375 -39.023438 50.125 -34.171875 Z M 38.859375 -34.171875 "/></g></g></g><g fill="#a2adb4" fill-opacity="1"><g transform="translate(249.639156, 102.379625)"><g><path d="M 40.46875 -33.75 C 40.46875 -31.132812 39.847656 -28.679688 38.609375 -26.390625 C 37.378906 -24.109375 35.441406 -22.265625 32.796875 -20.859375 C 30.160156 -19.460938 26.835938 -18.765625 22.828125 -18.765625 L 14.640625 -18.765625 L 14.640625 0 L 4.828125 0 L 4.828125 -48.875 L 22.828125 -48.875 C 26.609375 -48.875 29.828125 -48.21875 32.484375 -46.90625 C 35.148438 -45.601562 37.144531 -43.804688 38.46875 -41.515625 C 39.800781 -39.234375 40.46875 -36.644531 40.46875 -33.75 Z M 22.40625 -26.671875 C 25.113281 -26.671875 27.117188 -27.289062 28.421875 -28.53125 C 29.734375 -29.769531 30.390625 -31.507812 30.390625 -33.75 C 30.390625 -38.507812 27.726562 -40.890625 22.40625 -40.890625 L 14.640625 -40.890625 L 14.640625 -26.671875 Z M 22.40625 -26.671875 "/></g></g></g><g fill="#a2adb4" fill-opacity="1"><g transform="translate(289.2635, 102.379625)"><g><path d="M 34.796875 -9.3125 L 15.328125 -9.3125 L 12.109375 0 L 1.828125 0 L 19.390625 -48.9375 L 30.8125 -48.9375 L 48.375 0 L 38.015625 0 Z M 32.140625 -17.15625 L 25.0625 -37.59375 L 18 -17.15625 Z M 32.140625 -17.15625 "/></g></g></g><path fill="#a2adb4" d="M 171.15625 51.277344 C 174.726562 50.910156 178.972656 51.1875 182.515625 52.015625 C 184.578125 52.496094 187.890625 53.527344 188.90625 55.332031 C 188.898438 55.226562 188.878906 55.128906 188.839844 55.03125 C 188.902344 53.667969 188.96875 52.195312 189.039062 50.679688 C 189.035156 50.679688 189.035156 50.683594 189.03125 50.683594 C 189.085938 49.480469 189.140625 48.257812 189.195312 47.046875 C 189.003906 45.78125 186.667969 44.472656 183.082031 43.628906 C 179.5625 42.796875 175.339844 42.5 171.785156 42.835938 C 167.867188 43.207031 165.171875 44.289062 164.175781 45.886719 C 164.148438 46.035156 164.085938 46.398438 164.082031 46.757812 C 164.070312 47.632812 164.054688 48.703125 164.035156 49.785156 C 164.027344 49.785156 164.023438 49.78125 164.015625 49.78125 C 163.984375 51.53125 163.949219 52.894531 163.914062 53.773438 C 165.0625 52.71875 167.199219 51.679688 171.15625 51.277344 " fill-opacity="1" fill-rule="nonzero"/><g clip-path="url(#ab4b84cd14)"><path fill="#a2adb4" d="M 201.644531 42.867188 L 176.4375 31.316406 C 176.339844 31.269531 176.226562 31.269531 176.128906 31.316406 L 151.644531 42.507812 C 151.503906 42.574219 151.410156 42.722656 151.40625 42.886719 C 151.40625 43.050781 151.496094 43.203125 151.636719 43.273438 L 163.214844 48.90625 C 163.230469 48.179688 163.242188 47.402344 163.253906 46.578125 C 163.261719 46.011719 163.375 45.46875 163.382812 45.445312 L 163.398438 45.371094 L 163.433594 45.308594 C 164.214844 43.984375 166.285156 42.300781 171.714844 41.785156 C 175.347656 41.441406 179.664062 41.746094 183.261719 42.59375 C 185.664062 43.160156 189.742188 44.460938 190.023438 46.804688 L 190.027344 46.839844 L 190.027344 46.882812 C 189.984375 47.796875 189.945312 48.722656 189.902344 49.636719 L 201.660156 43.625 C 201.800781 43.554688 201.886719 43.40625 201.882812 43.242188 C 201.878906 43.078125 201.785156 42.929688 201.644531 42.867188 " fill-opacity="1" fill-rule="nonzero"/></g><path fill="#ff9a12" d="M 158.035156 52.9375 L 157.253906 52.921875 L 157.414062 44.1875 L 158.191406 44.199219 L 158.035156 52.9375 " fill-opacity="1" fill-rule="nonzero"/><g clip-path="url(#aa761b3a9c)"><path fill="#ffb608" d="M 157.070312 54.003906 C 155.671875 55.886719 155.199219 58.464844 155.433594 61.578125 C 157.425781 63.257812 158.929688 63.199219 160.054688 61.808594 C 160.078125 55.8125 159.195312 52.832031 157.070312 54.003906 " fill-opacity="1" fill-rule="evenodd"/></g><g clip-path="url(#244228c9b9)"><path fill="#e4a91d" d="M 156.734375 62.464844 L 156.570312 56.347656 L 155.988281 62.007812 C 156.246094 62.191406 156.492188 62.34375 156.734375 62.464844 " fill-opacity="1" fill-rule="evenodd"/></g><g clip-path="url(#c1e11c7ccc)"><path fill="#e4a91d" d="M 157.78125 59.101562 L 157.796875 61.699219 L 157.414062 58.304688 L 157.636719 62.632812 C 157.882812 62.703125 158.117188 62.746094 158.339844 62.761719 L 158.363281 62.757812 L 157.78125 59.101562 " fill-opacity="1" fill-rule="evenodd"/></g><g clip-path="url(#e170abdbeb)"><path fill="#e4a91d" d="M 158.773438 56.863281 L 158.828125 62.730469 C 158.980469 62.675781 159.125 62.609375 159.265625 62.523438 L 159.40625 59.6875 L 159.023438 59.496094 L 158.773438 56.863281 " fill-opacity="1" fill-rule="evenodd"/></g><path fill="#e4a91d" d="M 157.925781 51.664062 C 158.730469 51.703125 159.355469 52.355469 159.316406 53.121094 C 159.28125 53.886719 158.59375 54.472656 157.785156 54.433594 C 156.980469 54.390625 156.355469 53.738281 156.394531 52.976562 C 156.433594 52.210938 157.113281 51.625 157.925781 51.664062 " fill-opacity="1" fill-rule="evenodd"/></svg>