<?xml version="1.0" encoding="UTF-8"?>
<svg id="Layer_2" data-name="Layer 2" xmlns="http://www.w3.org/2000/svg" viewBox="0 0 316.56 83.14">
  <defs>
    <style>
      .cls-1 {
        fill: #1b92d0;
      }

      .cls-2 {
        fill: #ea2227;
      }

      .cls-2, .cls-3, .cls-4, .cls-5, .cls-6, .cls-7, .cls-8, .cls-9, .cls-10, .cls-11 {
        fill-rule: evenodd;
      }

      .cls-12, .cls-10 {
        fill: #e7e6e6;
      }

      .cls-3 {
        fill: #09509e;
      }

      .cls-4, .cls-13 {
        fill: #231f20;
      }

      .cls-5 {
        fill: #fff;
      }

      .cls-6 {
        fill: #39b24a;
      }

      .cls-7 {
        fill: #919396;
      }

      .cls-8 {
        fill: #8dd7f7;
      }

      .cls-9 {
        fill: #6d6f71;
      }

      .cls-11 {
        fill: #d0d1d2;
      }
    </style>
  </defs>
  <g id="Layer_1-2" data-name="Layer 1">
    <g>
      <g>
        <path class="cls-3" d="M266.95,34.6v-4.86l6.26-29.18h7.98l-7.26,34.04h-6.98ZM266.95,5.42l1.07-5.02h-1.07v5.02ZM266.95.4v5.02l-.16.95h-.72V.4h.88ZM266.95,29.74v4.86h-.88v-.45l.88-4.4h0ZM266.07,9.77v-.39h.05l-.05.39ZM266.07.4v5.97h-7.25l1.22-5.97h6.03ZM266.07,9.38v.39l-5.37,24.83h-6.86v-4.96l4.29-20.26h7.93ZM266.07,34.14l-.12.45h.12v-.45h0ZM253.85,5.53V.56h1l-1,4.96ZM253.85.56v4.96l-6.26,29.07h-7.98l.6-2.96h-.15c-.9,1.12-2.01,1.95-3.24,2.56v-4.96c2.79-.62,4.63-3.02,5.53-7.16.21-1.06.38-2.05.38-2.95,0-2.96-1.45-4.46-4.35-4.46-.55,0-1.05.05-1.56.16v-6.09h.17c3.91,0,6.31,1.23,7.2,3.74h.12l2.57-11.94h6.97ZM253.85,29.63l-1.06,4.96h1.06v-4.96ZM236.82,8.76v6.09c-2.79.62-4.63,3.01-5.52,7.24-.23,1.14-.34,2.14-.34,3.03,0,2.85,1.4,4.29,4.25,4.29.61,0,1.11-.05,1.61-.16v4.96c-1.56.79-3.35,1.18-5.41,1.18-2.9,0-5.09-.84-6.65-2.52-1.45-1.55-2.18-3.78-2.18-6.63,0-1.34.17-2.74.51-4.3.84-4.07,2.52-7.25,4.97-9.65,2.41-2.29,5.31-3.52,8.77-3.52h0ZM206.49,35.2v-5.51c2.79-.72,4.69-3.3,5.63-7.69.23-1.24.38-2.24.38-3.2,0-3.06-1.44-4.63-4.29-4.63-.62,0-1.17.06-1.73.18v-5.53c.9-.11,1.89-.17,2.91-.17,7.7,0,11.58,3.07,11.58,9.21,0,1.23-.18,2.63-.51,4.14-1.74,7.97-6.38,12.37-13.97,13.2ZM206.49,8.82v5.53c-2.8.72-4.69,3.24-5.58,7.53-.3,1.28-.4,2.35-.4,3.29,0,3.13,1.44,4.69,4.41,4.69.5,0,1.06-.06,1.57-.17v5.51c-.89.12-1.74.18-2.73.18-4.65,0-7.93-1.11-9.84-3.29v-14.56c2.34-5.13,6.53-8.03,12.57-8.7h0ZM193.92,5.19V.17c.61,0,1.28.05,1.95.1l-1.12,4.92h-.83ZM193.92.17v5.02h-1.12c-1.24,0-2.08.17-2.53.56-.49.34-.77.89-.93,1.68l-.4,1.95h4.75l-1.17,5.47h-4.8l-4.18,19.75h-6.66v-6.3l2.85-13.45h-2.85v-5.47h4.07l.73-3.63c.78-3.79,3.79-5.75,9.04-5.75,1.01,0,2.08.06,3.2.17h0ZM193.92,17.52c-.57,1.34-1.01,2.79-1.34,4.36-.4,1.56-.57,3.01-.57,4.3,0,2.46.67,4.46,1.9,5.91v-14.56h0ZM176.87,5.19h.22l1.12-4.92c-.45,0-.89-.05-1.34-.1v5.02ZM176.87.17v5.02h-1.73c-1.22,0-2.01.17-2.52.56-.44.34-.78.89-.95,1.68l-.39,1.95h4.74l-1.19,5.47h-4.72l-4.2,19.75h-8.02l4.18-19.75h-4.12l1.17-5.47h4.18l.73-3.63c.78-3.79,3.79-5.75,9.1-5.75,1.12,0,2.39.06,3.74.17h0ZM176.87,9.38h-.11l-1.17,5.47h1.28v-5.47h0ZM176.87,28.3l-1.35,6.3h1.35v-6.3h0ZM140.02,34.2v-4.35c.78-.17,1.51-.45,2.13-.83,1.45-.91,2.34-2.13,2.73-3.8l.74-3.02c-.56.28-1.68.56-3.24.78-.77.18-1.51.28-2.35.4v-4.01c1.96-.17,3.02-.28,3.18-.28,1.23-.17,2.07-.45,2.57-.84.5-.39.83-1.06,1.06-1.94v-.56c0-1.46-1.23-2.17-3.75-2.17-1.17,0-2.23.16-3.06.5v-5.15c1.34-.16,2.85-.27,4.41-.27,3.68,0,6.36.5,7.98,1.44,1.56.9,2.28,2.35,2.28,4.36,0,.72-.05,1.56-.27,2.51l-2.85,13.33c-.28,1.23-.11,1.96.39,2.23.33.17.56.23.61.17-.1,1.28-.16,1.96-.16,1.96,0-.06-1.17,0-3.52.11-2.33.11-3.74.17-4.07.17-.72-.39-1.12-1-1.12-1.95,0-.18,0-.34.07-.56l.04-.66h-.12c-1.04,1.05-2.29,1.83-3.68,2.45ZM126.13,8.76c.1.84.17,1.74.17,2.69s-.07,2-.17,3.19v-5.87h0ZM140.02,8.92v5.15c-1.39.56-2.28,1.62-2.67,3.12h-7.65c.84-2.95,2.29-5.07,4.47-6.41,1.44-.89,3.45-1.57,5.85-1.85h0ZM140.02,19.37v4.01c-.45.06-.95.11-1.45.23-2.28.33-3.56,1.51-3.96,3.34-.06.28-.11.56-.11.78,0,1.61,1.05,2.4,3.24,2.4.83,0,1.61-.11,2.28-.28v4.35c-1.79.79-3.84,1.18-6.19,1.18-4.4,0-6.97-1.34-7.7-3.97v-3.79c.95-4.52,4.34-7.13,10.22-7.81,1.44-.17,2.72-.32,3.67-.44ZM125.58,17.8c-1.12,5.3-3.13,9.37-5.97,12.23-2.84,2.83-6.34,4.35-10.64,4.57v-6.3c1.61-.39,2.95-1.17,4.02-2.4,1.66-1.73,2.82-4.52,3.61-8.26.45-1.89.62-3.5.62-4.91,0-2.07-.44-3.52-1.45-4.4-.95-.89-2.44-1.35-4.52-1.35h-2.28V.95h6.07c6.47,0,10.21,2.63,11.1,7.81v5.87c-.17,1-.34,2.06-.56,3.17h0ZM126.13,27.74c-.17.78-.23,1.45-.23,2,0,.63.06,1.17.23,1.67v-3.67ZM108.97,34.6h-18.36L97.82.95h11.15v6.03h-3.68l-4.63,21.59h5.69c.95,0,1.83-.12,2.62-.27v6.3Z"/>
        <path class="cls-9" d="M262.16,52.84v-.05c.78-1.46,1.85-4.97,3.18-10.48.73-2.84,1.29-5.08,1.68-6.7.83-3.07,1.9-5.4,3.07-7.08,1.23-1.68,2.5-2.45,3.9-2.45.73,0,1.34.22,1.73.67.45.44.67,1.01.67,1.72,0,.79-.23,1.62-.67,2.35-.5.78-1.17,1.56-2.12,2.35-.44.34-.78.61-1.17.78-.33.21-.55.33-.67.33-.06,0-.12,0-.17-.06-.06,0-.06-.06-.06-.06,0-.04.11-.1.28-.27,1.84-1.46,2.74-3.01,2.74-4.63,0-.68-.17-1.22-.46-1.73-.27-.45-.61-.73-1-.73-.5,0-1.12.61-1.9,1.89-.72,1.23-1.28,2.68-1.65,4.35l-.18.9c-1.79,8.37-3.57,14.05-5.42,17.18h4.53c1.17,0,2.12-.28,2.85-.73.66-.49,1.01-.73,1.01-.73t.04.06c.06,0,.06.06.06.12,0,.11-.1.38-.45.67-.28.33-.66.72-1.21,1.23-.63.45-1.23.83-1.91,1-.62.22-1.68.34-3.07.34-.84,0-1.56-.06-2.12-.06-.56-.06-1.07-.06-1.51-.17h0ZM262.16,50.05c.05-.06.05-.11.05-.11,0-.05,0-.11-.05-.11v.22ZM262.16,49.84v.22c-.11.39-.55.95-1.39,1.68-.95.89-1.79,1.34-2.57,1.34-.72,0-1.29-.28-1.67-.72-.39-.45-.67-1.23-.85-2.35-.71.83-1.39,1.45-1.95,1.95v-1.17c.4-.16.84-.5,1.23-.88.66-.73,1.33-1.73,1.9-2.96.56-1.23.83-2.18.83-2.96,0-.45-.11-.78-.34-.96-.15-.21-.56-.27-1.07-.27-.94,0-1.77.16-2.56.61h0v-.72c.95-.39,1.95-.62,3.07-.62.9,0,1.63.23,2.12.67.5.45.78,1.05.78,1.84,0,.51-.21,1.29-.6,2.41-.39,1.11-1.02,2.51-1.79,4.18h1.39c1.11,0,2-.4,2.85-1.06.22-.22.38-.34.44-.34.06,0,.11.06.17.06v.06h0ZM262.16,52.79v.05h0v-.05ZM253.73,42.63v.72c-.72.45-1.5,1.12-2.23,2.07-.57.78-.96,1.51-1.28,2.17-.29.67-.45,1.27-.45,1.84,0,.61.16,1,.45,1.27.27.23.78.4,1.56.4.83,0,1.44-.11,1.89-.28l.05-.05v1.17c-.23.17-.44.34-.66.45-.73.44-1.51.67-2.36.67-.94,0-1.66-.28-2.17-.72-.5-.51-.71-1.23-.71-2.18,0-1.01.27-2.01.78-2.96.5-.96,1.23-1.86,2.23-2.74.95-.83,1.89-1.46,2.85-1.84h.05ZM224.92,53.13v-1.9h2.9c.51-.78.84-1.5,1.07-2.17.22-.67.33-1.39.33-2.07,0-1.22-.33-2.22-1-3.01-.68-.72-1.52-1.12-2.57-1.12-.23,0-.5,0-.73.06v-.72c.62-.12,1.3-.17,1.9-.17,1.41,0,2.46.34,3.3,1,.79.67,1.17,1.57,1.17,2.74,0,.83-.23,1.73-.61,2.68-.47.95-1.07,1.79-1.85,2.51-.79.79-1.63,1.4-2.52,1.78-.44.17-.89.34-1.4.4h0ZM232.3,52.84c1.01-2.45,1.73-4.56,2.12-6.3.44-1.78.61-3.46.61-5.02v-.56c.61.33,1.05.79,1.33,1.29.28.56.39,1.22.39,2.12,0,.22,0,.62-.05,1.11v.18c1.18-1.29,2.22-2.23,3.18-2.8.89-.61,1.79-.89,2.68-.89.78,0,1.41.23,1.83.61.39.4.62.95.62,1.68,0,.84-.38,1.78-1.04,2.78-.74,1.07-1.97,2.41-3.65,3.97h3.24c1.07,0,2.06-.39,2.97-1.11.16-.18.27-.23.34-.23.05,0,.11,0,.15.06.06.06.06.12.06.12,0,.49-.5,1.11-1.61,1.9-1.08.72-2.19,1.1-3.42,1.1h-3.73c1.44-1.95,2.63-3.62,3.35-5.02.76-1.33,1.11-2.39,1.11-3.06,0-.5-.11-.83-.34-1.06-.22-.23-.55-.34-1-.34-.84,0-1.73.34-2.68,1.06-.88.73-1.62,1.68-2.12,2.8-.49,1.16-1,2.17-1.39,3.07-.4.89-.61,1.45-.73,1.67-.18.45-.27.73-.45.78-.12.11-.39.11-.83.11h-.95ZM224.92,42.19v.72c-1,.17-1.9.73-2.73,1.68-1.06,1.23-1.57,2.52-1.57,3.97,0,.94.28,1.62.79,2.06.49.39,1.28.61,2.46.61h1.06v1.9c-.5.12-1,.16-1.56.16-1.51,0-2.75-.34-3.63-1.06-.9-.68-1.34-1.62-1.34-2.85,0-.89.28-1.9.95-2.95.62-1.12,1.46-2.02,2.46-2.79.73-.5,1.51-.95,2.41-1.23.22-.06.51-.11.72-.22h0ZM191.34,51.95v-1.17c.45-.16.84-.5,1.24-.88.73-.73,1.34-1.73,1.89-2.96.56-1.23.84-2.18.84-2.96,0-.45-.12-.78-.28-.96-.23-.21-.56-.27-1.06-.27-1.01,0-1.85.16-2.56.61h-.06v-.72c.95-.39,2.01-.62,3.08-.62.94,0,1.62.23,2.12.67.55.45.77,1.05.77,1.84,0,.51-.22,1.29-.61,2.41-.38,1.11-1,2.51-1.79,4.18h1.46c1.07,0,2.02-.4,2.79-1.06.23-.22.4-.34.44-.34.13,0,.13.06.17.06.06.06.06.11.06.17,0,.33-.45.94-1.39,1.78-.96.89-1.85,1.34-2.62,1.34s-1.3-.28-1.69-.72c-.38-.45-.6-1.23-.79-2.35-.73.83-1.39,1.45-2.01,1.95h0ZM200.39,52.84c.45-1.39,1.12-3.79,1.97-7.18.22-.96.38-1.68.5-2.18h-1.12c-.18,0-.29,0-.35-.05-.11-.06-.17-.11-.17-.17,0-.44.06-.78.11-.95.05-.17.28-.29.62-.29h1.12c.55-1.9,1.06-3.46,1.57-4.68.5-1.23,1.06-2.35,1.61-3.24h.73c.05,0,.12,0,.17.04.06,0,.06.06.11.12,0,0-.11.16-.23.5-.79,2.17-1.45,4.58-1.85,7.25h3.57c.12,0,.24.06.34.12.06,0,.12.06.12.17,0,.45,0,.72-.12.95-.06.17-.28.22-.62.22h-3.62c-.28,1.63-.68,3.07-1.11,4.24-.46,1.23-1.07,2.35-1.8,3.3h3.59c1.27,0,2.28-.39,3.07-1.17.22-.17.34-.23.4-.23.1,0,.22,0,.27.06.06,0,.06.06.06.12,0,.5-.57,1.11-1.69,1.89-1.12.78-2.34,1.16-3.58,1.16h-3.69ZM214.08,40.29v-.34c0-1.44.17-2.45.45-3.06.28-.55.73-.84,1.46-.84.38,0,.67.06.84.16.22.13.27.34.27.62,0,.39-.22.9-.78,1.51-.05.06-.05.11-.1.17l-1.63,1.78h-.5ZM211.74,51.28h2.34c1.07,0,2.02-.39,2.97-1.22.22-.16.33-.27.39-.27s.12,0,.17.06c.12.06.12.11.12.16,0,.33-.51.95-1.63,1.84-1.06.89-2.02,1.35-2.85,1.35s-1.45-.23-1.89-.68c-.46-.51-.61-1.18-.61-2.06,0-.45.11-1.23.33-2.34.23-1.07.62-2.46,1.05-4.08,0-.06,0-.17.07-.34.28-1.06.61-1.56,1.01-1.56h1.12c.27,0,.44,0,.49.06.06.05.06.16.06.28,0,.06,0,.1-.12.34-.27.78-.55,1.61-.84,2.51-.05.22-.16.61-.32,1.12-.57,2.07-1.18,3.68-1.85,4.85ZM124.24,29.63c.28-.28.56-.56.89-.83-.28.06-.61.06-.89.11v-.61c.78-.12,1.39-.23,1.9-.23.22.05.32.05.39.11.05,0,.1.05.1.17,0,.05-.1.11-.32.28-.85.56-1.51,1.34-2.07,2.29v-1.28h0ZM191.34,42.63v.72c-.73.45-1.45,1.12-2.18,2.07-.56.78-1,1.51-1.28,2.17-.33.67-.44,1.27-.44,1.84,0,.61.11,1,.38,1.27.28.23.85.4,1.57.4.85,0,1.45-.11,1.89-.28l.06-.05v1.17c-.23.17-.45.34-.67.45-.73.44-1.51.67-2.29.67-1.01,0-1.74-.28-2.18-.72-.5-.51-.78-1.23-.78-2.18,0-1.01.28-2.01.78-2.96.51-.96,1.24-1.86,2.23-2.74.96-.83,1.9-1.46,2.91-1.84h0ZM124.24,51.55v-6.41c.22-1.28.28-2.45.28-3.63v-.56c.67.33,1.06.79,1.34,1.29.28.56.45,1.22.45,2.12,0,.22-.07.62-.07,1.11-.05.06-.05.18-.05.18,1.18-1.29,2.23-2.23,3.18-2.8.89-.61,1.85-.89,2.68-.89s1.45.23,1.84.61c.45.4.61.95.61,1.68,0,.84-.33,1.78-1.06,2.78-.73,1.07-1.9,2.41-3.63,3.97h3.24c1.07,0,2.06-.39,2.96-1.11.17-.18.28-.23.34-.23.04,0,.1,0,.16.06.06.06.06.12.06.12,0,.49-.51,1.11-1.56,1.9-1.11.72-2.24,1.1-3.46,1.1h-3.74c1.5-1.95,2.63-3.62,3.35-5.02.78-1.33,1.18-2.39,1.18-3.06,0-.5-.12-.83-.33-1.06-.28-.23-.62-.34-1.06-.34-.85,0-1.73.34-2.69,1.06-.89.73-1.62,1.68-2.06,2.8-.56,1.16-1,2.17-1.45,3.07-.23.55-.39,1-.51,1.27h0ZM137.07,52.84c.45-1.39,1.11-3.79,1.89-7.18.23-.96.39-1.68.57-2.18h-1.12c-.17,0-.27,0-.32-.05-.11-.06-.17-.11-.17-.17,0-.44.06-.78.1-.95.07-.17.28-.29.62-.29h1.12c.55-1.9,1.06-3.46,1.56-4.68.5-1.23,1.06-2.35,1.67-3.24h.72c.07,0,.12,0,.19.04.04,0,.04.06.09.12,0,0-.09.16-.21.5-.79,2.17-1.46,4.58-1.91,7.25h3.64c.11,0,.21.06.33.12.06,0,.11.06.11.17,0,.45-.05.72-.11.95-.05.17-.27.22-.62.22h-3.68c-.28,1.63-.67,3.07-1.11,4.24-.51,1.23-1.07,2.35-1.79,3.3h3.63c1.28,0,2.28-.39,3.07-1.17.23-.17.33-.23.39-.23.11,0,.22,0,.28.06.06,0,.06.06.06.12,0,.5-.55,1.11-1.68,1.89-1.12.78-2.35,1.16-3.62,1.16h-3.69ZM150.35,47.11c-.66-.12-1.11-.29-1.33-.57-.24-.22-.34-.67-.34-1.22,0-.95.34-1.73,1.11-2.34.74-.67,1.68-.96,2.79-.96.34,0,.9,0,1.68.06.72.06,1.28.06,1.62.06h.45c.33,0,.56.06.67.11.11.06.17.11.17.22,0,.28-.24.61-.79,1.06-.55.4-1.01.61-1.45.61-.38,0-.95-.17-1.67-.56-.74-.39-1.3-.61-1.69-.61-.45,0-.84.17-1.18.45-.28.28-.44.61-.44,1.06,0,.28.17.56.57.73.33.23,1,.45,1.94.61.39.11.83.16,1.33.16.52.06.8.16.8.34,0,.38-.23.72-.62.96-.4.21-.94.33-1.68.33-.16,0-.27-.05-.44-.05s-.39-.07-.61-.11c-.9.44-1.56.84-2.01,1.28-.46.39-.66.84-.66,1.23,0,.44.11.72.44.88.33.17.94.23,1.84.23h3.29c1.51,0,2.68-.4,3.46-1.23.22-.17.34-.28.45-.28.06,0,.11,0,.11.04.06.06.06.12.06.18,0,.11,0,.17-.06.27,0,.05-.05.17-.11.23l-.83.83c-.68.78-1.23,1.23-1.69,1.45-.45.16-1.22.27-2.23.27h-3.85c-1.12,0-1.83-.11-2.34-.44-.45-.28-.67-.78-.67-1.45,0-.73.33-1.39.95-2.01.67-.67,1.62-1.28,2.95-1.83h0ZM160.73,44.03h-.21c-.35,0-.58-.11-.73-.34-.12-.17-.23-.44-.23-.84,0-.5.17-.89.45-1.22.27-.34.67-.5,1.07-.5.33,0,.54.1.71.28.19.16.28.44.28.72h6.47c-1.61,1.45-2.73,2.68-3.29,3.79-.61,1.05-.95,2.29-.95,3.63,0,.66.11,1.11.34,1.33.22.22.67.33,1.28.33s1.35-.22,2.07-.61c.72-.44,1.12-.67,1.17-.67.05,0,.12.05.12.05.06.06.06.11.06.22,0,.34-.56.89-1.62,1.73-1.06.84-2.06,1.24-3.02,1.24-.77,0-1.33-.23-1.73-.68-.38-.51-.56-1.18-.56-2.06,0-1,.22-1.95.73-2.89.5-.96,1.4-2.12,2.78-3.52h-4.01c-.33.95-.73,1.78-1.23,2.45-.45.66-.79,1-1.01,1-.05,0-.11,0-.11-.05,0,0-.05,0-.05-.06s.22-.44.55-1.12c.39-.72.62-1.45.67-2.23h0ZM169.94,52.84c1.01-2.45,1.68-4.56,2.07-6.3.45-1.78.67-3.46.67-5.02v-.56c.62.33,1.02.79,1.29,1.29.28.56.45,1.22.45,2.12,0,.22-.05.62-.05,1.11-.06.06-.06.18-.06.18,1.18-1.29,2.24-2.23,3.19-2.8.89-.61,1.84-.89,2.68-.89s1.46.23,1.85.61c.45.4.61.95.61,1.68,0,.84-.32,1.78-1.06,2.78-.72,1.07-1.9,2.41-3.58,3.97h3.19c1.13,0,2.07-.39,2.97-1.11.16-.18.27-.23.33-.23.04,0,.11,0,.16.06.06.06.13.12.13.12,0,.49-.57,1.11-1.62,1.9-1.12.72-2.24,1.1-3.47,1.1h-3.74c1.5-1.95,2.62-3.62,3.34-5.02.79-1.33,1.17-2.39,1.17-3.06,0-.5-.1-.83-.32-1.06-.29-.23-.62-.34-1.07-.34-.83,0-1.72.34-2.67,1.06-.9.73-1.63,1.68-2.08,2.8-.56,1.16-1,2.17-1.45,3.07-.39.89-.61,1.45-.66,1.67-.18.45-.35.73-.46.78-.16.11-.44.11-.83.11h-.96ZM100.54,53.58c.29-.68,1.12-1.23,2.57-1.57,1.45-.39,3.34-.55,5.74-.55,1.33,0,2.74,0,4.24.1h.72c2,0,3.57-2.61,4.64-7.91.21-1.23.43-2.17.55-2.85.72-3.23,1.5-5.74,2.45-7.47.73-1.35,1.62-2.57,2.79-3.68v1.28c-.5.78-.83,1.73-1.17,2.8-.33,1.16-.78,2.95-1.35,5.24-.99,4.57-2.06,7.7-3.11,9.48-1.06,1.74-2.23,3.02-3.46,3.74-1.28.77-3.01,1.17-5.22,1.17h-8.21c-.34.05-.73.11-1.18.23h0ZM124.24,28.91v-.61c-.62.05-1.34.22-2.06.38-1.79.4-3.41.9-4.91,1.51-3.39,1.39-5.96,3.23-7.74,5.63-1.79,2.34-2.67,5.13-2.67,8.31,0,1.29.11,2.29.33,3.01.17.73.5,1.12.83,1.12h.12c-.12-.29-.16-.57-.16-.89-.07-.4-.11-.79-.11-1.18,0-2.06.5-4.3,1.55-6.58,1-2.29,2.34-4.17,3.96-5.69,1.6-1.51,3.4-2.75,5.35-3.56,1.72-.74,3.56-1.24,5.51-1.46h0ZM124.24,45.14c-.11.45-.22.89-.33,1.39-.4,1.73-1.06,3.85-2.06,6.3h.89c.44,0,.72,0,.88-.11.12-.05.29-.33.46-.78,0-.05.05-.21.16-.39v-6.41Z"/>
        <path class="cls-6" d="M293.01,83.03v-4.63c.34.06.72.17,1.28.24,1.56,0,2.96-1.13,4.24-3.35l-3.57-19.7h6.71l1.38,13.23h.06l6.85-13.23h6.59l-13.06,22.04c-1.23,2.07-2.29,3.46-3.18,4.18-1.23.9-2.86,1.34-4.96,1.34-.96,0-1.73-.05-2.35-.11h0ZM293.01,59.99h.5l.95-4.41h-1.45v4.41ZM293.01,55.57v4.41h-3.35l-2.06,9.82c-.07.34-.11.62-.11.84,0,.61.56.95,1.73.95.68,0,1.35,0,1.96-.12l-.89,4.24c-1.9.22-3.41.28-4.57.28-1.79,0-3.07-.17-3.8-.55-.83-.45-1.23-1.29-1.23-2.45,0-.62.07-1.29.28-2.13l2.28-10.88h-3.29v-.56l.84-3.85h3.4l1.33-6.19h6.43l-1.34,6.19h2.4ZM293.01,78.4v4.63c-.62-.06-1.12-.16-1.51-.28l1.01-4.46c.11.06.28.06.5.11h0ZM279.96,48.94v-.56h.12l-.12.56ZM279.96,48.38v.56l-.89,4.19h-6.36l.94-4.75h6.31ZM279.96,59.43v.56h-.12l.12-.56h0ZM246.59,74.1v-4.74h5.8c-.22,1.95.89,2.96,3.23,2.96,1.17,0,2.07-.28,2.81-.84.54-.5.87-1.12.87-1.73,0-.56-.33-.95-1-1.23-.39-.16-1.45-.39-3.18-.77-2.79-.62-4.57-1.12-5.41-1.57-1.39-.73-2.12-1.85-2.12-3.4,0-.45.06-.95.17-1.51.88-4.18,4.57-6.3,11.09-6.3,2.8,0,4.98.57,6.43,1.57,1.4.89,2.07,2.12,2.07,3.68,0,.45-.06.84-.18,1.28h-6.41v-.66c0-1.18-1-1.79-2.91-1.79-2.18,0-3.34.61-3.62,1.79-.22,1.16,1.57,2.06,5.42,2.62,2.22.33,3.78.78,4.73,1.28,1.35.79,2.02,1.9,2.02,3.41,0,.5-.06,1-.22,1.55-.96,4.47-4.8,6.65-11.61,6.65-3.9,0-6.59-.74-7.98-2.24h0ZM246.59,60.32l1.11-5.13c-.34-.06-.71-.11-1.11-.11v5.24h0ZM274.21,75.78h-6.37l4.29-20.21h6.43l-4.35,20.21ZM246.59,55.08v5.24l-.17.89c-.94-.16-1.72-.27-2.44-.27-1.68,0-3.13.51-4.37,1.39-1.23.95-1.95,2.23-2.28,3.79l-2.07,9.66h-6.42l4.36-20.21h6.41l-.84,3.69h.05c2.07-2.79,4.42-4.18,7.09-4.18h.67ZM246.59,69.36h-.89c-.11.61-.16,1.16-.16,1.72,0,1.23.34,2.24,1.06,3.01v-4.74h0ZM218,76.16v-4.01c1.33-.45,2.29-1.46,2.85-2.96h6.42c-.56,1.95-1.79,3.57-3.63,4.86-1.56,1.11-3.46,1.84-5.64,2.11h0ZM218,67.07v-3.73h4.36c.06-.39.11-.78.11-1.18,0-2.17-1.18-3.28-3.52-3.28-.34,0-.62,0-.95.05v-3.85c.51-.06,1-.12,1.51-.12,5.97,0,9,2.57,9,7.71,0,1.33-.17,2.78-.5,4.4h-10.01ZM218,55.08v3.85c-2.24.33-3.75,1.79-4.41,4.41h4.41v3.73h-5.26c-.11.74-.23,1.34-.23,1.95,0,2.24,1.24,3.35,3.65,3.35.67,0,1.28-.06,1.84-.22v4.01c-.78.12-1.68.18-2.57.18-4.47,0-7.27-1.29-8.56-3.86v-8.53c.79-2.51,2.08-4.53,3.91-6.09,2.02-1.62,4.42-2.56,7.22-2.78h0ZM206.87,56.86l.79-1.29h-.79v1.29ZM149.9,48.83h.89l-.89,4.18v-4.18h0ZM206.87,55.57v1.29l-10.78,18.92h-7.43l-2.96-20.21h7.04l.79,14.62h.1l7.1-14.62h6.14ZM206.87,63.95c-.16.5-.27,1-.38,1.5-.23,1.17-.34,2.3-.34,3.29,0,1.45.22,2.68.72,3.74v-8.53h0ZM149.9,75.78v-4.14l3.52-16.07h6.31l-.56,2.68h.05c1.57-2.12,4.02-3.18,7.32-3.18,1.72,0,3.12.39,4.12,1.17,1.06.78,1.58,1.91,1.58,3.46,0,.5-.06,1.07-.23,1.68l-3.02,14.4h-6.41l2.67-12.56c.06-.39.11-.73.11-1.06,0-1.5-.83-2.22-2.51-2.22-1.18,0-2.18.33-3.07.94-.95.73-1.51,1.73-1.79,2.96l-2.58,11.95h-5.52ZM184.24,53.13h-6.43l1.01-4.75h6.42l-1.01,4.75h0ZM179.39,75.78h-6.38l4.31-20.21h6.42l-4.35,20.21ZM147.12,66.23c-.78,3.62-2.35,6.25-4.64,7.87-2.29,1.62-5.41,2.41-9.48,2.41-3.52,0-6.14-.56-7.81-1.62-1.63-1.12-2.45-2.9-2.45-5.36,0-.95.11-2.06.39-3.29l3.68-17.41h7.03l-3.86,17.86c-.1.55-.16,1.06-.16,1.56,0,2.28,1.4,3.46,4.19,3.46,3.24,0,5.24-1.67,5.97-5.02l3.8-17.86h6.13v4.18l-2.78,13.22h0ZM149.9,71.64l-.89,4.14h.89v-4.14Z"/>
      </g>
      <g>
        <path class="cls-7" d="M66.2,40.04c-3.44-12.56-1.32-21.51,3.34-28.06l-8.11-8.41H17.32l-7.77,8.08c6.89,14.43,1.99,23.7,1.78,27.86h0c-4.88-4.7-7.66-1.96-8.1,0h0c-1.78,5.79-3.22,7.86-3.22,7.86.99,2.51,2.11,2.84,2.66,2.84h0c.11,11.13,10.01,17.04,21.11,20.74,11.23,3.83,14.78,8.63,14.78,8.63,0,0,6.55-6.77,17.78-9.61,11.54-4.26,18.44-12.12,17.87-19.87h0c2.22,0,2.56-.66,3.22-2.95,0,0-1.66-1.09-3.1-6.66h0c0-.87-.34-1.86-1.01-2.94-3.12-3.07-7.01,2.18-7.11,2.5h0Z"/>
        <path class="cls-6" d="M6.11,42.44c.11-.21,1.55-2.51,1.78-.53.21,1.96-3.34.42-3.67-2.09-.11-1.52,5.89-4.58,6.56,4.37h0c.44,12.24,14,15.84,19.88,18.35,6.99,3.82,7.66,5.35,7.66,5.35,0,0,3-3.27,7.77-5.03,11.89-4.13,20.65-8.18,20.56-18.99.44-7.42,8.88-7.75,5.32-1.75-.99,1.75-5.22,2.18-1.99-1.2l1.12,2.08c.21,0,.43-.22.66-.43,0,0-1.33-3.06-1.45-3.06-1.11.32-2.1,1.74-2,3.17.12,2.84,5.12,7.32,4.78,9.72-1.99,12.23-19.99,17.46-19.99,17.46-8.33,2.19-14.56,8.3-14.56,8.3-3.79-5.13-17.1-9.06-17.1-9.06C4.77,62.33,3.66,53.48,3.99,50.64c.22-2.18,4-5.57,4-5.57,1.01-1.1,1.33-4.7-.78-5.46-.11,0-1.66,2.4-1.66,2.4.1.11.44.31.55.43Z"/>
        <path class="cls-3" d="M12.43,44.85c.57,9.17,9.22,12.23,17.89,15.29,5.33,1.97,8.11,5.03,8.11,5.03,3.78-3.06,5.45-3.83,8.54-4.81,9.44-3.39,19.68-6.78,17.44-20.09-4.77-19.99,3-27.84,3-27.84l-7.21-7.2H17.88l-6.34,6.98c5.78,12.34,2.56,22.27,1.78,27.3-1,4.36-.66,2.29-.89,5.79v-.44Z"/>
        <polygon class="cls-5" points="38.65 9.25 38.98 8.26 38.1 7.72 39.2 7.72 39.55 6.74 39.88 7.72 40.87 7.72 39.99 8.26 40.32 9.25 39.55 8.7 38.65 9.25"/>
        <g>
          <path class="cls-5" d="M38.87,20.17c6.78,0,12.32,5.45,12.32,12.12s-5.54,12.01-12.32,12.01-12.21-5.35-12.21-12.01,5.44-12.12,12.21-12.12Z"/>
          <path class="cls-13" d="M26.65,32.29c0-6.68,5.44-12.13,12.23-12.13h0c-6.77.03-12.2,5.46-12.21,12.13h0c0,6.65,5.44,12,12.21,12h0c6.77,0,12.31-5.35,12.31-12h0c0-6.67-5.54-12.1-12.31-12.11h0c6.78-.01,12.33,5.44,12.33,12.11h0c0,6.66-5.55,12.01-12.33,12.02h0c-6.78,0-12.22-5.35-12.23-12.02h0Z"/>
        </g>
        <g>
          <path class="cls-8" d="M38.75,20.94c6.45,0,11.56,5.02,11.56,11.35s-5.11,11.35-11.56,11.35-11.54-5.02-11.54-11.35,5.22-11.35,11.54-11.35Z"/>
          <path class="cls-1" d="M26.93,32.29c0-6.5,5.35-11.62,11.82-11.64h0v.55c-6.17,0-11.26,4.9-11.27,11.09h0c0,6.16,5.1,11.07,11.27,11.07h0c6.3,0,11.29-4.9,11.29-11.07h0c0-6.19-4.98-11.08-11.29-11.09h0v-.55c6.6.02,11.83,5.15,11.83,11.64h0c0,6.47-5.23,11.61-11.83,11.62h0c-6.47-.01-11.82-5.14-11.82-11.62h0Z"/>
        </g>
        <path class="cls-1" d="M35.41,43.24c-.08-.13-.04-.3.1-.38h0c1.46-.85,2.37-1.26,3.33-1.27h0c1.02,0,1.97.47,3.59,1.27h0c.13.07.19.22.12.36h0c-.07.14-.23.19-.37.13h0c-1.61-.8-2.5-1.21-3.34-1.21h0c-.78,0-1.61.35-3.06,1.2h0s-.09.04-.13.04h0c-.09,0-.19-.05-.24-.14h0Z"/>
        <path class="cls-1" d="M27.21,32.57c-.16,0-.27-.13-.27-.28h0c0-.16.11-.27.27-.27h23.22c.15,0,.27.12.27.27h0c0,.15-.12.28-.27.28h-23.22Z"/>
        <path class="cls-1" d="M35.27,21.8c-.12-.09-.15-.25-.06-.38h0c.09-.12.25-.15.38-.07h0c1.37.98,2.39,1.38,3.34,1.38h0c1.04,0,2.07-.49,3.47-1.39h0c.12-.08.29-.04.37.08h0c.09.12.04.3-.08.38h0c-1.41.91-2.54,1.48-3.76,1.48h0c-1.12,0-2.26-.48-3.66-1.49h0Z"/>
        <path class="cls-1" d="M32.05,23.23h0c-.13-.08-.16-.25-.08-.38h0c.08-.13.26-.17.38-.09h0c2.59,1.67,4.75,2.64,6.92,2.64h0c1.91,0,3.88-.75,6.21-2.52h0c.12-.08.29-.06.38.06h0c.09.12.06.29-.06.38h0c-2.38,1.8-4.47,2.62-6.54,2.62h0c-2.34,0-4.61-1.04-7.22-2.73h0Z"/>
        <path class="cls-1" d="M29.83,25.09c-.13-.09-.16-.26-.06-.38h0c.08-.12.25-.16.38-.07h0c3.6,2.54,6.47,3.39,8.86,3.39h0c3.53,0,6.1-1.88,8.52-3.19h0c.13-.07.3-.02.37.11h0c.07.13.02.3-.11.36h0c-2.36,1.28-5.04,3.26-8.77,3.26h0c-2.53,0-5.52-.91-9.17-3.49h0Z"/>
        <path class="cls-1" d="M28.27,36.99s-.03-.02-.05-.04h0c-.05-.05-.08-.13-.08-.19h0c0-.07.03-.15.08-.2h0s.05-.04.08-.06h.01s.01-.01.02-.01h0s.1-.06.16-.1h0c.14-.07.35-.19.62-.32h0c.54-.27,1.3-.62,2.26-.98h0c1.94-.72,4.67-1.43,7.86-1.43h0c3.15,0,6.73.68,10.44,2.76h0c.13.08.18.23.11.37h0c-.08.13-.25.17-.37.1h0c-3.62-2.02-7.1-2.68-10.17-2.68h0c-5.65.02-9.61,2.22-10.59,2.72h0c-.05.07-.13.11-.22.11h0s-.09,0-.16-.05h0Z"/>
        <path class="cls-1" d="M29.73,39.83c-.06-.14,0-.3.14-.37h0c4.49-2.05,6.93-3,9.26-3.01h0c2.4,0,4.57,1.02,8.63,2.79h0c.13.06.19.22.13.36h0c-.06.14-.22.19-.37.14h0c-4.07-1.79-6.18-2.74-8.4-2.74h0c-2.16,0-4.55.9-9.04,2.96h0s-.07.03-.11.03h0c-.1,0-.2-.06-.25-.16h0Z"/>
        <path class="cls-1" d="M41.73,42.64c5-2.88,6.73-6.43,6.74-9.83h0c0-4.63-3.34-9.05-6.4-10.77h0l.27-.48c3.22,1.82,6.67,6.33,6.68,11.24h0c0,3.59-1.89,7.36-7.02,10.31h0l-.27-.48h0ZM42.07,22.05s0,0,0,0h0s0,0,0,0h0Z"/>
        <path class="cls-1" d="M40.9,42.24c2.93-2.83,4.43-6.42,4.43-10h0c0-3.48-1.41-6.94-4.31-9.69h0l.38-.4c3.01,2.85,4.48,6.47,4.48,10.1h0c0,3.73-1.56,7.47-4.58,10.4h0l-.39-.4h0Z"/>
        <path class="cls-1" d="M39.99,41.94c1.81-2.11,2.85-5.73,2.85-9.52h0c0-3.4-.83-6.92-2.63-9.59h0l.47-.31c1.86,2.79,2.71,6.41,2.72,9.9h0c0,3.88-1.04,7.6-2.98,9.88h0l-.42-.36h0Z"/>
        <path class="cls-1" d="M34.48,32.13c0-3.01.79-6.27,2.71-9.58h0l.48.27c-1.88,3.23-2.62,6.38-2.62,9.31h0c0,3.77,1.25,7.17,3.06,9.84h0s-.47.3-.47.3c-1.85-2.74-3.16-6.24-3.16-10.14h0Z"/>
        <path class="cls-1" d="M31.99,32.28c0-3.51,1.53-6.97,4.45-10.12h0l.4.38c-2.85,3.07-4.3,6.39-4.3,9.74h0c0,3.34,1.46,6.73,4.53,9.97h0l-.39.38c-3.15-3.31-4.68-6.85-4.68-10.36h0Z"/>
        <path class="cls-1" d="M29.06,32.85c.02-5.19,3.74-9.86,6.7-11.29h0l.24.5c-2.73,1.29-6.4,5.88-6.39,10.79h0c0,3.35,1.66,6.89,6.52,9.79h0l-.28.47c-4.99-2.96-6.79-6.72-6.79-10.27h0Z"/>
        <polygon class="cls-1" points="38.64 41.91 38.64 38.84 38.87 38.84 39.1 38.84 39.1 41.91 38.64 41.91 38.64 41.91"/>
        <path class="cls-1" d="M38.58,40.91v-9.71c0-.15.13-.28.29-.28h0c.15,0,.28.13.28.28h0v9.71c0,.16-.12.28-.28.28h0c-.16,0-.29-.12-.29-.28h0Z"/>
        <path class="cls-5" d="M50.65,36.22c10.22,5.79,8.22,8.85-12.99-3.93-9.77-5.9-26.21-16.82-8-7.86l.34-.44c-20.55-9.39-1.9,3.06,7.11,8.63,22.99,14.3,25.11,9.39,13.77,2.95l-.22.66Z"/>
        <path class="cls-5" d="M48.21,24.43c12-6.89,12.66-2.95-9.23,8.84-9.99,5.35-28.44,14.31-11.55,3.17l-.22-.55c-18.43,12.89,2.44,2.83,11.89-2.08,23.99-12.55,21.44-17.25,8.66-9.93l.45.55Z"/>
        <g>
          <g>
            <polygon class="cls-4" points="33.1 30.43 32.21 30.43 28.77 36.99 28.77 37.09 34.54 37.09 37.77 37.09 37.88 37.2 37.77 37.31 37.88 37.41 39.76 37.41 39.88 37.31 39.76 37.09 45.42 37.09 48.87 37.09 48.98 36.99 48.87 36.88 45.42 30.43 42.76 30.43 33.1 30.43 33.1 30.43"/>
            <polygon class="cls-13" points="37.81 37.48 37.7 37.26 37.81 37.26 37.77 37.18 34.54 37.18 28.67 37.09 28.69 36.94 32.21 30.35 33.09 30.35 33.09 30.43 33.09 30.51 32.29 30.47 28.85 36.99 28.76 37.01 34.54 37.01 37.83 37.04 37.93 37.26 37.82 37.25 37.88 37.33 39.7 37.35 39.8 37.35 39.76 37.01 45.42 37.01 48.8 37.03 48.92 37.05 48.79 36.91 45.42 30.51 42.76 30.51 33.09 30.51 33.09 30.43 33.09 30.35 42.76 30.35 45.49 30.38 48.92 36.81 49.03 37.05 48.87 37.18 45.42 37.18 39.83 37.05 39.93 37.37 39.76 37.49 37.81 37.48 37.81 37.48"/>
          </g>
          <g>
            <polygon class="cls-4" points="28.77 36.99 28.77 37.2 28.77 37.2 28.88 37.31 37.77 37.31 37.88 37.31 37.77 37.41 37.65 37.41 37.65 37.41 37.65 37.54 37.77 37.54 37.88 37.63 39.76 37.63 39.76 37.63 39.88 37.54 39.99 37.54 39.99 37.54 39.99 37.41 39.88 37.41 39.88 37.31 39.88 37.31 48.87 37.31 48.87 37.2 48.98 37.2 48.98 37.2 48.98 37.09 48.98 36.99 48.87 37.09 39.76 37.09 39.65 37.09 39.65 37.2 39.65 37.2 39.65 37.31 39.65 37.31 39.65 37.31 38.1 37.31 38.1 37.31 37.98 37.31 38.1 37.2 38.1 37.2 38.1 37.09 37.98 37.09 37.98 37.09 28.99 37.09 28.88 37.09 28.88 37.09 28.77 36.99 28.77 36.99"/>
            <path class="cls-13" d="M37.81,37.69l-.04-.07-.21-.09.06-.14-8.8-.02-.14-.17v-.22h.08l.06-.06.05.08h9.11l.19.09-.02.14,1.4.08v-.11l.09-.2h.11l9.05.02.26-.04v.11l-.08.19-.03-.08-.09.19-8.91-.08-.08.02.19.08-.08.21-.06-.02-.17.12-1.94-.03h0ZM37.82,37.46l.05.08,1.83.02.16-.11-.08-.04.09-.19,8.91.08.06-.14h-9.08l-.03-.08v.11l-.08.19h-1.54l-.18-.14.09-.04.09-.03h-9.12l-.16-.02.05.07h8.9l.16.15-.12.09h0ZM39.9,37.53l.09-.04-.11-.04.02.08h0ZM37.65,37.45h.1s-.02-.03-.02-.03l-.08.03h0ZM48.9,37.2v-.05h-.01s.01.05.01.05h0Z"/>
          </g>
          <g>
            <polygon class="cls-5" points="33.21 30.1 32.55 30.43 29.54 36.66 30.99 36.66 32.21 36.54 33.88 36.33 35.43 36 36.32 35.89 36.87 36 37.54 36.22 37.88 36.54 38.1 36.99 38.21 37.2 39.55 37.2 39.55 37.2 39.65 36.66 39.88 36.22 40.32 35.89 40.87 35.79 41.55 35.79 42.43 35.89 43.42 36.22 45.2 36.54 46.87 36.66 48.09 36.66 45.09 30.55 44.43 30.1 38.98 33.38 33.21 30.1 33.21 30.1"/>
            <path class="cls-13" d="M38.13,37.24l-.11-.21-.21-.42-.31-.31-.65-.21-.52-.11-.89.11-1.55.32-1.67.22-1.23.12-1.53-.13,3.05-6.26.66-.33.04.07.04-.07,5.68,3.28,5.54-3.28.69.48,2.93,6.23h-1.23l-1.68-.12-1.79-.32-.97-.33-.87-.11h-.66l-.52.09-.41.3-.22.41-.18.62-1.41-.05h0ZM36.89,35.92l.7.23.36.34.23.44.03.18,1.26.06.1-.57.26-.46.48-.35.57-.11h.69l.9.12.97.32,1.77.32,1.67.11,1.14.12-2.98-6.07-.57-.44-5.54,3.28-5.73-3.26-.57.28-3.09,6.09h1.44l1.22-.11,1.66-.21,1.55-.33.92-.11.56.12h0Z"/>
          </g>
          <polygon class="cls-13" points="38.67 36.44 38.67 30.11 38.83 30.11 38.83 36.44 38.67 36.44 38.67 36.44"/>
          <polygon class="cls-13" points="29.49 36.58 30.61 35.93 30.69 36.08 29.58 36.73 29.49 36.58 29.49 36.58"/>
          <polygon class="cls-13" points="47.05 36.19 47.13 36.03 48.13 36.58 48.05 36.73 47.05 36.19 47.05 36.19"/>
          <g>
            <polygon class="cls-4" points="33.1 30.1 30.55 36.12 31.43 36 32.77 35.79 34.1 35.56 35.31 35.24 36.09 35.12 36.65 35.12 37.21 35.24 37.77 35.46 38.21 35.68 38.43 35.89 38.65 36.22 38.87 36.54 38.98 36.22 39.32 35.79 39.65 35.46 40.2 35.24 40.75 35.12 41.32 35.12 41.88 35.12 42.99 35.34 44.65 35.79 46.1 36 46.98 36.12 47.21 36.22 44.54 30.21 43.76 30.1 42.99 30.1 42.21 29.89 41.76 29.78 41.21 29.56 40.75 29.45 40.32 29.45 39.88 29.45 39.55 29.45 39.32 29.56 39.2 29.78 38.98 29.89 38.87 30.1 38.87 30.1 38.75 29.99 38.65 29.78 38.43 29.67 38.32 29.56 37.98 29.45 37.65 29.34 36.99 29.34 36.43 29.56 35.88 29.67 35.43 29.78 34.99 29.89 34.43 29.99 33.77 30.1 33.32 30.1 33.1 30.1 33.1 30.1"/>
            <path class="cls-13" d="M38.58,36.27l-.21-.32-.2-.21-.43-.21-.54-.22-.54-.1h-.55l-.76.1-1.22.34-1.35.22-1.33.22h-.97s2.55-6.02,2.55-6.02l.08.03v-.08h.65l.65-.11.56-.1.44-.11.45-.11.54-.11.59-.22h.69l.33.11.37.12.09.1.27.15.08.19-.02.13.15-.25.18-.07.16-.27.26-.11h1.24l.46.11.54.22.45.11.77.22h.77l.85.14,2.55,6.14-.2-.1-.88-.11-1.46-.22-1.66-.45-1.09-.21h-1.11s-.54.1-.54.1l-.52.21-.33.32-.33.41-.25.34-.21-.31h0ZM36.66,35.04l.58.11.58.23.45.23.24.24.22.33.07.34.12-.34.34-.44.36-.35.57-.23.58-.11h1.14l1.11.21,1.65.45,1.45.22.91.12.11.22-2.6-5.96-.78-.11h-.79s-.78-.21-.78-.21l-.46-.12-.53-.21-.43-.11h-1.17s-.2.06-.2.06l-.15.26-.18.08-.24.23-.14-.13-.05-.18-.24-.13-.08-.08-.34-.11-.3-.1h-.64s-.56.22-.56.22l-.55.1-.45.11-.45.12-.56.1-.67.11h-.62l-2.62,5.85.88-.11,1.34-.22,1.33-.22,1.23-.33.78-.11h.57Z"/>
          </g>
          <g>
            <polygon class="cls-11" points="33.21 30.1 30.55 36 31.54 35.89 32.88 35.68 34.1 35.46 35.31 35.12 36.21 35.02 36.65 35.02 37.32 35.12 37.77 35.34 38.21 35.56 38.43 35.79 38.65 36 38.87 36.44 38.98 36.12 39.32 35.68 39.65 35.34 40.1 35.12 40.75 35.02 41.32 35.02 41.76 35.02 42.88 35.24 44.65 35.68 45.98 35.89 46.87 36 47.1 36.12 44.54 30.1 43.65 30.1 42.88 29.99 42.21 29.78 41.76 29.67 41.21 29.45 40.75 29.45 40.32 29.34 39.88 29.34 39.55 29.45 39.32 29.56 39.2 29.67 38.98 29.89 38.87 29.99 38.87 30.1 38.75 29.89 38.65 29.67 38.54 29.56 38.32 29.45 37.98 29.34 37.77 29.34 36.99 29.34 36.43 29.45 35.88 29.67 35.43 29.78 35.1 29.89 34.54 29.89 33.77 29.99 33.32 30.1 33.21 30.1 33.21 30.1"/>
            <path class="cls-13" d="M38.59,36.06l-.22-.21-.21-.21-.43-.23-.42-.21-.66-.1h-.42l-.89.1-1.23.33-1.22.22-1.34.22h-1.08s2.66-5.91,2.66-5.91l.08.03v-.08h.09l.46-.11.78-.1h.52s.34-.11.34-.11l.44-.11.57-.22.57-.11h1.01l.35.12.24.12.13.14.1.22-.02.08.11-.09.22-.23.14-.13.25-.1.35-.12h.46l.42.11h.48s.53.22.53.22l.46.12.65.21.76.11.97.05,2.44,6.12-.21-.1-.89-.11-1.34-.22-1.77-.43-1.1-.22h-.99l-.64.1-.43.2-.33.33-.32.41-.27.34-.2-.42h0ZM36.66,34.93l.69.12.46.22.46.23.22.22.24.24.06.45.13-.36.33-.45.36-.35.48-.22.67-.11h1.02l1.12.22,1.77.44,1.33.22.92.12.11.22-2.47-5.96h-.91l-.78-.12-.66-.2-.47-.12-.51-.21h-.48l-.41-.11h-.41s-.33.1-.33.1l-.21.09-.11.11-.22.23-.09.04-.16.14-.12-.21-.09-.21-.09-.1-.21-.1-.3-.11h-.98s-.54.11-.54.11l-.57.21-.44.11-.36.12h-.54l-.76.1-.47.11h-.06l-2.73,5.73,1-.11,1.33-.22,1.22-.21,1.22-.34.91-.11h.45Z"/>
          </g>
          <polygon class="cls-13" points="38.67 36.44 38.67 36.33 38.67 30.1 38.67 30.1 38.83 30.1 38.83 36.33 38.84 36.44 38.67 36.44 38.67 36.44"/>
        </g>
        <path class="cls-5" d="M57.88,13.73v-.32h0c.1,0,.22,0,.22-.11.1,0,.1-.11.1-.11h.55c0,.11,0,.22-.22.33-.12.22-.34.22-.66.22h0ZM57.88,12.96v-.34h.33v-.21c-.1-.11-.22-.22-.33-.22h0v-.34c.33,0,.54.12.76.34.11.11.22.43.22.77h-.99ZM60.32,12.42h-.22c-.11,0-.23,0-.34.11-.1.1-.1.21-.1.33v.87h-.56v-1.75h.56v.33h0c.1-.22.33-.45.55-.45,0,0,.11,0,.11.12v.44h0ZM62.2,13.18c0,.33-.33.55-.89.55s-.89-.22-.89-.55h.56c0,.11.1.22.33.22s.33-.11.33-.22l-.11-.11q-.11,0-.33-.11c-.33,0-.45-.11-.55-.11-.11-.11-.23-.23-.23-.43,0-.11.12-.22.23-.33.11-.11.34-.23.67-.23.22,0,.44.12.66.23.11.11.11.22.11.33h-.56c0-.11-.11-.11-.22-.11-.22,0-.33,0-.33.11,0,.11.22.21.55.21.22,0,.34.11.45.11.11.11.22.22.22.44h0ZM62.98,11.75h-.56v-.42h.56v.42h0ZM62.98,13.73h-.56v-1.75h.56v1.75h0ZM64.42,13.73h-.44c-.11,0-.33,0-.33-.12-.11,0-.11-.21-.11-.32v-.98h-.33v-.33h.33v-.55h.56v.55h.32v.33h-.32v.98h.32v.44h0ZM66.3,11.98l-.66,1.86c-.1.22-.21.32-.21.32-.12.11-.22.11-.45.11h-.33v-.33h.23c.1,0,.22-.1.22-.33l-.68-1.63h.68l.33,1.09h0l.33-1.09h.54ZM57.88,11.86v.34c-.23,0-.34.22-.34.43h.34v.34h-.34c0,.32.11.44.34.44v.32c-.68,0-1.01-.32-1.01-.87,0-.33.11-.55.22-.66.23-.22.45-.34.79-.34h0ZM46.54,13.73v-.32c.11,0,.23,0,.23-.11.1,0,.1-.11.1-.22v-.22h-.22s0,.11-.11.11v-.34h.11c.12,0,.22,0,.22-.1v-.11c0-.11-.1-.22-.22-.22h-.11v-.34h.11c.22,0,.45.12.67.23.11,0,.11.22.11.44v.87q0,.11.11.11s0,.1,0,0v.22h-.57s-.11-.12-.11-.22h0c0,.1-.22.22-.33.22h0ZM48.43,13.73h-.67v-2.4h.67v2.4h0ZM51.76,12.85c0,.32-.11.55-.22.65-.22.22-.44.22-.89.22-.33,0-.56,0-.78-.22-.11-.11-.22-.33-.22-.65v-1.43h.56v1.53c0,.22.22.32.44.32.33,0,.45-.11.45-.32v-1.53h.66v1.43h0ZM53.87,13.73h-.55v-1.1c0-.21-.12-.32-.34-.32-.11,0-.22,0-.22.11q-.11.11-.11.21v1.1h-.55v-1.75h.55v.22h0c.11-.22.34-.34.55-.34.23,0,.34.12.45.23.11,0,.22.22.22.33v1.3h0ZM54.76,11.75h-.55v-.42h.55v.42h0ZM54.76,13.73h-.55v-1.75h.55v1.75h0ZM56.86,11.98l-.66,1.75h-.67l-.65-1.75h.65l.33,1.2h0l.34-1.2h.66ZM46.54,11.86v.34c-.23.11-.34.11-.34.33h-.44c0-.22,0-.33.21-.44.12-.11.33-.23.56-.23h0ZM46.54,12.63v.34h-.11c-.12,0-.23.11-.23.22s.11.22.23.22h.11v.32h-.23c-.43,0-.66-.12-.66-.55,0-.32.23-.44.55-.55h.34ZM42.43,13.73v-.32h0c.22,0,.33-.22.33-.55,0-.43-.11-.55-.33-.55h0v-.45h0c.66,0,.99.34.99,1,0,.55-.33.87-.99.87h0ZM45.42,13.73h-.54v-1.1c0-.21-.12-.32-.34-.32-.11,0-.22,0-.22.11q-.11.11-.11.21v1.1h-.56v-1.75h.56v.22h0c.11-.22.33-.34.55-.34s.33.12.44.23c.12,0,.22.22.22.33v1.3ZM42.43,11.86v.45c-.33,0-.45.11-.45.55,0,.32.12.55.45.55v.32c-.68,0-1-.32-1-.87,0-.66.33-1,1-1h0ZM38.1,13.73v-.32q.1,0,.22-.11c.11,0,.11-.11.11-.22v-.22h-.23l-.1.11v-.34h.1q.12,0,.23-.1v-.11c0-.11-.11-.22-.33-.22h0v-.34h0c.33,0,.55.12.65.23.12,0,.23.22.23.44v.98c.12,0,.12.1.12,0v.22h-.55c-.11,0-.11-.12-.11-.22h0c-.11.1-.23.22-.33.22h0ZM40.32,13.73h-.33c-.22,0-.34,0-.44-.12,0,0-.12-.21-.12-.32v-.98h-.23v-.33h.23v-.55h.56v.55h.33v.33h-.33v.87q0,.11.11.11h.22v.44h0ZM41.21,11.75h-.57v-.42h.57v.42h0ZM41.21,13.73h-.57v-1.75h.57v1.75ZM38.1,11.86v.34c-.23.11-.33.11-.33.33h-.56c0-.22.11-.33.22-.44.11-.11.34-.23.67-.23h0ZM38.1,12.63v.34h-.12c-.21,0-.21.11-.21.22s0,.22.21.22h.12v.32h-.33c-.45,0-.67-.12-.67-.55,0-.32.22-.44.67-.55h.33ZM32.55,13.73v-.32h0c.11,0,.22,0,.22-.11.11,0,.11-.11.11-.11h.56c0,.11-.12.22-.23.33-.11.22-.33.22-.66.22h0ZM32.55,12.96v-.34h.33v-.21c-.11-.11-.22-.22-.33-.22h0v-.34c.33,0,.55.12.66.34.23.11.23.43.23.77h-.89ZM34.99,12.42h-.23c-.1,0-.33,0-.33.11-.11.1-.11.21-.11.33v.87h-.67v-1.75h.67v.33h0c.11-.22.23-.45.44-.45q.12,0,.23.12v.44h0ZM36.87,13.73h-.56v-1.1c0-.21-.1-.32-.23-.32-.1,0-.21,0-.21.11q-.12.11-.12.21v1.1h-.55v-1.75h.55v.22h0c0-.22.23-.34.56-.34.12,0,.33.12.45.23.11,0,.11.22.11.33v1.3ZM32.55,11.86v.34c-.22,0-.33.22-.45.43h.45v.34h-.45c0,.32.22.44.45.44v.32c-.67,0-1-.32-1-.87,0-.33.11-.55.22-.66.23-.22.46-.34.79-.34h0ZM23.21,13.73v-.44c.33,0,.44-.11.44-.43s-.1-.55-.44-.55v-.33c.22,0,.33.11.44.22h0v-.87h.57v2.4h-.57v-.22h0c-.1.1-.22.22-.44.22h0ZM25.1,11.75h-.55v-.42h.55v.42h0ZM25.1,13.73h-.55v-1.75h.55v1.75h0ZM25.98,13.73h-.55v-2.4h.55v2.4h0ZM27.88,13.73h-.55v-2.3h.55v2.3h0ZM29.99,13.73h-.56v-1.1c0-.21,0-.32-.22-.32-.11,0-.22,0-.22.11q-.1.11-.1.21v1.1h-.57v-1.75h.57v.22h0c.1-.22.21-.34.55-.34.22,0,.33.12.45.23.11,0,.11.22.11.33v1.3h0ZM31.43,13.73h-.45c-.1,0-.22,0-.33-.12-.11,0-.11-.21-.11-.32v-.98h-.33v-.33h.33v-.55h.55v.55h.34v.33h-.34v.98h.34v.44ZM23.21,11.98v.33h0c-.22,0-.33.22-.33.55s.11.43.33.43h0v.44h-.11c-.33,0-.44-.12-.67-.22-.11-.22-.11-.44-.11-.65,0-.33,0-.55.11-.66.23-.22.33-.34.67-.34,0,0,.11,0,.11.12h0ZM21.11,13.73v-.32h0c.21,0,.44-.22.44-.55,0-.43-.22-.55-.44-.55h0v-.45h0c.67,0,1,.34,1,1,0,.55-.33.87-1,.87h0ZM21.11,11.86v.45c-.23,0-.34.11-.34.55,0,.32.11.55.34.55v.32c-.68,0-1.01-.32-1.01-.87,0-.66.34-1,1.01-1h0ZM16.54,13.73v-.32s.11,0,.22-.11c0,0,.12-.11.12-.22v-.22h-.23l-.11.11v-.34h.11q.11,0,.11-.1t.12-.11c0-.11-.12-.22-.34-.22h0v-.34h0c.34,0,.56.12.67.23.11,0,.23.22.23.44v.98s.11.1.11,0v.22h-.56c-.1,0-.1-.12-.1-.22h0c-.12.1-.23.22-.34.22h0ZM18.77,11.64h-.11q-.11,0-.11.1-.12,0-.12.11v.12h.34v.33h-.34v1.42h-.55v-1.42h-.22v-.33h.22v-.23c0-.32.21-.42.55-.42h.34v.32h0ZM20.09,11.64h-.22q-.1,0-.1.1-.11,0-.11.11v.12h.34v.33h-.34v1.42h-.55v-1.42h-.23v-.33h.23v-.23c0-.32.21-.42.55-.42h.43v.32ZM15.44,12.53c0,.33-.11.65-.22.87-.22.21-.45.32-.78.32h-.12v-.44c.12,0,.23-.11.34-.22.11-.11.11-.33.11-.55s0-.44-.11-.55c-.11-.12-.21-.23-.34-.23v-.32h.12c.33,0,.55,0,.78.21.11.22.22.55.22.88h0ZM16.54,11.86v.34c-.22.11-.33.11-.33.33h-.55c0-.22.1-.33.22-.44.11-.11.33-.23.66-.23h0ZM16.54,12.63v.34h-.11c-.22,0-.22.11-.22.22s0,.22.22.22h.11v.32h-.33c-.45,0-.66-.12-.66-.55,0-.32.21-.44.66-.55h.33ZM14.32,13.73h-1.1v-2.3h1.1v.32h-.55v1.54h.55v.44Z"/>
        <path class="cls-10" d="M25.66,44.09l2.66,1.2c.9.44,1.56.87,2.01,1.31.45.54.77,1.1.88,1.74.23.54.23,1.2.11,1.86-.11.76-.33,1.41-.66,2.07-.45,1.09-1.01,1.86-1.45,2.3-.56.55-1.12.87-1.78,1.09-.54.11-1.1.22-1.77.11h0v-2.73c.33-.11.56-.22.88-.43.24-.33.56-.88,1-1.64.44-1.09.55-1.87.44-2.4-.22-.55-.67-.99-1.45-1.32l-.77-.43-.12.21v-2.94ZM23.65,43.21l2,.87v2.94l-2.44,5.25.78.33c.67.32,1.11.43,1.55.43h.11v2.73c-.78-.11-1.44-.33-1.89-.54l-4.65-2.07,4.54-9.94Z"/>
        <rect class="cls-12" x="37.21" y="49.76" width="3.43" height="10.93"/>
        <path class="cls-10" d="M51.65,44.41l3.1-1.42,2.78,5.89c.34.66.44,1.21.56,1.86,0,.55,0,1.21-.22,1.75-.23.55-.56.99-.91,1.43-.56.43-1.22.87-1.99,1.31-.56.22-1.12.44-1.66.54-.67.22-1.23.33-1.67.33s-1.01-.11-1.45-.33c-.56-.22-.89-.54-1.22-.87-.44-.55-.89-1.1-1.11-1.53l-2.78-5.9,3.12-1.41,2.89,6.01c.22.55.56.87,1,1.09.44.1,1,.1,1.55-.12.45-.32.9-.65,1-1.09.23-.44.11-.87-.11-1.42l-2.89-6.12Z"/>
        <path class="cls-2" d="M38.54,68.32c1.99,0,3.77,1.64,3.77,3.72s-1.78,3.71-3.77,3.71c-2.11,0-3.79-1.63-3.79-3.71s1.68-3.72,3.79-3.72Z"/>
      </g>
    </g>
  </g>
</svg>