<svg xmlns="http://www.w3.org/2000/svg" width="500" height="500" viewBox="0 0 375 375" fill="none">
  <rect width="375" height="375" fill="none"/>
  <!-- Original content from your SVG -->
  <g fill="#a2adb4" fill-opacity="1">
    <g transform="translate(65.354118, 347.957309)">
      <g>
        <path d="M 11.125 -111.328125 C 11.125 -133.160156 16.054688 -152.71875 25.921875 -170 C 35.785156 -187.28125 49.25 -200.742188 66.3125 -210.390625 C 83.382812 -220.046875 102.519531 -224.875 123.71875 -224.875 C 148.53125 -224.875 170.265625 -218.507812 188.921875 -205.78125 C 207.585938 -193.0625 220.628906 -175.460938 228.046875 -152.984375 L 176.84375 -152.984375 C 171.75 -163.585938 164.585938 -171.539062 155.359375 -176.84375 C 146.140625 -182.144531 135.488281 -184.796875 123.40625 -184.796875 C 110.46875 -184.796875 98.960938 -181.773438 88.890625 -175.734375 C 78.828125 -169.691406 70.984375 -161.15625 65.359375 -150.125 C 59.742188 -139.101562 56.9375 -126.171875 56.9375 -111.328125 C 56.9375 -96.691406 59.742188 -83.804688 65.359375 -72.671875 C 70.984375 -61.546875 78.828125 -52.957031 88.890625 -46.90625 C 98.960938 -40.863281 110.46875 -37.84375 123.40625 -37.84375 C 135.488281 -37.84375 146.140625 -40.546875 155.359375 -45.953125 C 164.585938 -51.367188 171.75 -59.375 176.84375 -69.96875 L 228.046875 -69.96875 C 220.628906 -47.28125 207.640625 -29.628906 189.078125 -17.015625 C 170.523438 -4.398438 148.738281 1.90625 123.71875 1.90625 C 102.519531 1.90625 83.382812 -2.914062 66.3125 -12.5625 C 49.25 -22.207031 35.785156 -35.617188 25.921875 -52.796875 C 16.054688 -69.972656 11.125 -89.484375 11.125 -111.328125 Z M 11.125 -111.328125 "/>
      </g>
    </g>
  </g>
  <path fill="#a2adb4" d="M 171.097656 117.617188 C 187.320312 115.960938 206.617188 117.214844 222.71875 120.976562 C 232.089844 123.164062 247.140625 127.851562 251.75 136.042969 C 251.722656 135.574219 251.625 135.121094 251.449219 134.683594 C 251.730469 128.488281 252.039062 121.785156 252.351562 114.910156 C 252.34375 114.910156 252.332031 114.914062 252.324219 114.914062 C 252.574219 109.457031 252.824219 103.90625 253.074219 98.398438 C 252.195312 92.644531 241.585938 86.703125 225.285156 82.855469 C 209.292969 79.082031 190.105469 77.742188 173.960938 79.265625 C 156.148438 80.949219 143.890625 85.863281 139.375 93.117188 C 139.246094 93.796875 138.972656 95.441406 138.949219 97.078125 C 138.894531 101.066406 138.820312 105.917969 138.726562 110.839844 C 138.703125 110.832031 138.679688 110.824219 138.652344 110.816406 C 138.503906 118.777344 138.339844 124.972656 138.175781 128.957031 C 143.398438 124.175781 153.105469 119.457031 171.097656 117.617188 " fill-opacity="1" fill-rule="nonzero"/>
  <g>
    <path fill="#a2adb4" d="M 309.648438 79.398438 L 195.089844 26.910156 C 194.644531 26.707031 194.140625 26.707031 193.695312 26.910156 L 82.425781 77.773438 C 81.78125 78.070312 81.359375 78.746094 81.351562 79.492188 C 81.34375 80.246094 81.75 80.929688 82.390625 81.238281 L 135.015625 106.84375 C 135.070312 103.550781 135.125 100.015625 135.179688 96.257812 C 135.210938 93.691406 135.742188 91.222656 135.765625 91.117188 L 135.835938 90.785156 L 136.007812 90.496094 C 139.550781 84.480469 148.957031 76.820312 173.628906 74.488281 C 190.136719 72.929688 209.75 74.300781 226.097656 78.15625 C 237.027344 80.734375 255.550781 86.652344 256.835938 97.285156 L 256.855469 97.460938 L 256.847656 97.640625 C 256.660156 101.808594 256.472656 106.003906 256.28125 110.164062 L 309.714844 82.847656 C 310.339844 82.527344 310.734375 81.84375 310.722656 81.101562 C 310.707031 80.355469 310.289062 79.691406 309.648438 79.398438 " fill-opacity="1" fill-rule="nonzero"/>
  </g>
  <path fill="#ff9a12" d="M 111.464844 125.160156 L 107.921875 125.097656 L 108.648438 85.398438 L 112.1875 85.460938 L 111.464844 125.160156 " fill-opacity="1" fill-rule="nonzero"/>
  <path fill="#ffb608" d="M 107.09375 130.003906 C 100.734375 138.574219 98.578125 150.28125 99.648438 164.425781 C 108.703125 172.054688 115.53125 171.792969 120.652344 165.472656 C 120.746094 138.226562 116.738281 124.6875 107.09375 130.003906 " fill-opacity="1" fill-rule="evenodd"/>
  <path fill="#e4a91d" d="M 105.5625 168.464844 L 104.816406 140.660156 L 102.160156 166.382812 C 103.339844 167.210938 104.464844 167.910156 105.5625 168.464844 " fill-opacity="1" fill-rule="evenodd"/>
  <path fill="#e4a91d" d="M 110.3125 153.175781 L 110.382812 164.980469 L 108.640625 149.550781 L 109.660156 169.210938 C 110.78125 169.546875 111.839844 169.734375 112.847656 169.8125 L 112.953125 169.796875 L 110.3125 153.175781 " fill-opacity="1" fill-rule="evenodd"/>
  <path fill="#e4a91d" d="M 114.816406 143.007812 L 115.078125 169.660156 C 115.757812 169.421875 116.425781 169.109375 117.0625 168.71875 L 117.703125 155.835938 L 115.957031 154.964844 L 114.816406 143.007812 " fill-opacity="1" fill-rule="evenodd"/>
  <path fill="#e4a91d" d="M 110.96875 119.386719 C 114.636719 119.558594 117.464844 122.519531 117.289062 125.996094 C 117.125 129.46875 114.007812 132.132812 110.339844 131.957031 C 106.671875 131.769531 103.828125 128.808594 104.007812 125.332031 C 104.183594 121.859375 107.289062 119.199219 110.96875 119.386719 " fill-opacity="1" fill-rule="evenodd"/>
</svg>